# xmcd
#
# Track frame offsets: 
#        150
#        23994
#        43649
#        60649
#        79041
#        96438
#        114820
#        135924
#        154023
#        170689
#        186764
#        206789
#        224904
#        250050
#        267164
#        289852
#        306759
#        319200
#
# Disc length: 4442 seconds
#
# Revision: 0
# Processed by: cddbd v1.5.2PL0 Copyright (c) Steve Scherf et al.
# Submitted via: ExactAudioCopy v1.0b1
#
DISCID=06115812
DTITLE=The Dawn - Tulad Ng Dati
DYEAR=2006
DGENRE=OPM
TTITLE0=Tulad Ng Dati
TTITLE1=Alam Ko, Alam N'yo
TTITLE2=Babaeng Mahiwaga
TTITLE3=Love (Will Set Us Free)
TTITLE4=Little Paradise
TTITLE5=Abot Kamay
TTITLE6=Beyond The Bend
TTITLE7=Iisang Bangka Tayo
TTITLE8=Salimpusa
TTITLE9=Dreams
TTITLE10=Talaga Naman
TTITLE11=Run Away
TTITLE12=Enveloped Ideas
TTITLE13=Salamat
TTITLE14=I Stand With You
TTITLE15=Ang Iyong Paalam
TTITLE16=Difference
TTITLE17=Kasama Sa Tagumpay
EXTD=
EXTT0=
EXTT1=
EXTT2=
EXTT3=
EXTT4=
EXTT5=
EXTT6=
EXTT7=
EXTT8=
EXTT9=
EXTT10=
EXTT11=
EXTT12=
EXTT13=
EXTT14=
EXTT15=
EXTT16=
EXTT17=
PLAYORDER=
